<svg width="110" height="21" viewBox="0 0 110 21" fill="none" xmlns="http://www.w3.org/2000/svg">
<path fill-rule="evenodd" clip-rule="evenodd" d="M9.1698 2.80876C9.5506 1.86638 10.8494 1.86638 11.2302 2.80876L12.9999 7.18988L17.5933 7.56876C18.5827 7.65013 18.9839 8.92063 18.23 9.58563L14.7305 12.6718L15.799 17.2856C16.0293 18.2796 14.9796 19.0645 14.133 18.5325L10.2 16.0598L6.26705 18.5325C5.42045 19.0645 4.3707 18.2788 4.60105 17.2856L5.6695 12.6718L2.17005 9.58563C1.4161 8.92063 1.8173 7.65013 2.8067 7.56876L7.4001 7.18988L9.1698 2.80876Z" fill="#29B851"/>
<path fill-rule="evenodd" clip-rule="evenodd" d="M31.5698 2.80876C31.9506 1.86638 33.2494 1.86638 33.6302 2.80876L35.3999 7.18988L39.9933 7.56876C40.9827 7.65013 41.3839 8.92063 40.63 9.58563L37.1305 12.6718L38.199 17.2856C38.4293 18.2796 37.3796 19.0645 36.533 18.5325L32.6 16.0598L28.6671 18.5325C27.8205 19.0645 26.7707 18.2788 27.0011 17.2856L28.0695 12.6718L24.5701 9.58563C23.8161 8.92063 24.2173 7.65013 25.2067 7.56876L29.8001 7.18988L31.5698 2.80876Z" fill="#29B851"/>
<path fill-rule="evenodd" clip-rule="evenodd" d="M53.9698 2.80876C54.3506 1.86638 55.6494 1.86638 56.0302 2.80876L57.7999 7.18988L62.3933 7.56876C63.3827 7.65013 63.7839 8.92063 63.0299 9.58563L59.5305 12.6718L60.5989 17.2856C60.8293 18.2796 59.7795 19.0645 58.9329 18.5325L55 16.0598L51.067 18.5325C50.2204 19.0645 49.1707 18.2788 49.401 17.2856L50.4695 12.6718L46.97 9.58563C46.2161 8.92063 46.6173 7.65013 47.6067 7.56876L52.2001 7.18988L53.9698 2.80876Z" fill="#29B851"/>
<path d="M76.958 3.06163C76.994 2.97136 77.0552 2.89413 77.1339 2.83978C77.2126 2.78543 77.3052 2.75641 77.4 2.75641C77.4948 2.75641 77.5874 2.78543 77.6661 2.83978C77.7448 2.89413 77.8061 2.97136 77.842 3.06163L79.6483 7.53375C79.6821 7.61744 79.7377 7.68989 79.8089 7.74315C79.8801 7.79641 79.9642 7.82841 80.052 7.83563L84.7423 8.22238C85.1665 8.25738 85.3382 8.8025 85.0152 9.08688L81.4418 12.2386C81.375 12.2974 81.3252 12.374 81.298 12.46C81.2707 12.5459 81.2669 12.638 81.2871 12.726L82.3793 17.4379C82.4013 17.5324 82.3955 17.6315 82.3628 17.7227C82.33 17.8139 82.2718 17.893 82.1954 17.9501C82.119 18.0072 82.0279 18.0398 81.9335 18.0436C81.8392 18.0474 81.7458 18.0224 81.6653 17.9716L77.6491 15.4473C77.574 15.4002 77.4879 15.3753 77.4 15.3753C77.3122 15.3753 77.226 15.4002 77.151 15.4473L73.1347 17.9725C73.0542 18.0232 72.9608 18.0483 72.8665 18.0445C72.7722 18.0406 72.681 18.0081 72.6046 17.951C72.5282 17.8939 72.47 17.8147 72.4372 17.7236C72.4045 17.6324 72.3988 17.5333 72.4207 17.4388L73.513 12.726C73.5332 12.638 73.5295 12.5459 73.5022 12.4599C73.4749 12.3739 73.4251 12.2974 73.3583 12.2386L69.7849 9.08688C69.7133 9.02354 69.6615 8.93983 69.6361 8.84629C69.6106 8.75274 69.6126 8.65353 69.6417 8.56113C69.6709 8.46874 69.7259 8.38728 69.8 8.327C69.874 8.26673 69.9637 8.23033 70.0577 8.22238L74.748 7.83563C74.8358 7.82841 74.9199 7.79641 74.9911 7.74315C75.0624 7.68989 75.118 7.61744 75.1518 7.53375L76.958 3.06163Z" stroke="#A3A3A3" stroke-width="1.5" stroke-linecap="round" stroke-linejoin="round"/>
<path d="M99.358 3.06163C99.394 2.97136 99.4552 2.89413 99.5339 2.83978C99.6126 2.78543 99.7052 2.75641 99.8 2.75641C99.8948 2.75641 99.9874 2.78543 100.066 2.83978C100.145 2.89413 100.206 2.97136 100.242 3.06163L102.048 7.53375C102.082 7.61744 102.138 7.68989 102.209 7.74315C102.28 7.79641 102.364 7.82841 102.452 7.83563L107.142 8.22238C107.566 8.25738 107.738 8.8025 107.415 9.08688L103.842 12.2386C103.775 12.2974 103.725 12.374 103.698 12.46C103.671 12.5459 103.667 12.638 103.687 12.726L104.779 17.4379C104.801 17.5324 104.796 17.6315 104.763 17.7227C104.73 17.8139 104.672 17.893 104.595 17.9501C104.519 18.0072 104.428 18.0398 104.334 18.0436C104.239 18.0474 104.146 18.0224 104.065 17.9716L100.049 15.4473C99.974 15.4002 99.8879 15.3753 99.8 15.3753C99.7121 15.3753 99.626 15.4002 99.551 15.4473L95.5347 17.9725C95.4542 18.0232 95.3608 18.0483 95.2665 18.0445C95.1721 18.0406 95.081 18.0081 95.0046 17.951C94.9282 17.8939 94.87 17.8147 94.8372 17.7236C94.8045 17.6324 94.7988 17.5333 94.8207 17.4388L95.913 12.726C95.9332 12.638 95.9295 12.5459 95.9022 12.4599C95.8749 12.3739 95.8251 12.2974 95.7583 12.2386L92.1849 9.08688C92.1133 9.02354 92.0615 8.93983 92.0361 8.84629C92.0106 8.75274 92.0126 8.65353 92.0417 8.56113C92.0709 8.46874 92.1259 8.38728 92.2 8.327C92.274 8.26673 92.3636 8.23033 92.4577 8.22238L97.148 7.83563C97.2358 7.82841 97.3199 7.79641 97.3911 7.74315C97.4624 7.68989 97.5179 7.61744 97.5518 7.53375L99.358 3.06163Z" stroke="#A3A3A3" stroke-width="1.5" stroke-linecap="round" stroke-linejoin="round"/>
</svg>
